<svg width="211" height="32" viewBox="0 0 211 32" fill="none" xmlns="http://www.w3.org/2000/svg">
<g clip-path="url(#clip0_7_15)">
<path d="M18 7.30047L17.8594 7.4411L9.00006 16.3353L6.10352e-05 7.33535V13.6635L7.41831 21.0818L9.00006 22.6995L10.5818 21.0818L18.0001 13.6983V7.29935L18 7.30047Z" fill="#D5D0CA"/>
<path d="M0 22.875H5.625L0 17.8125V22.875Z" fill="#D5D0CA"/>
<path d="M18 22.875H12.375L18 17.8125V22.875Z" fill="#D5D0CA"/>
</g>
<path d="M46.16 7.98C43.73 7.98 42.08 8.97 41.03 10.41C40.04 8.85 38.36 7.98 36.38 7.98C34.19 7.98 32.72 8.97 31.82 10.41L31.1 8.31H27.62L27.62 24H31.88V15.24C31.88 12.72 33.26 11.64 34.91 11.64C36.47 11.64 37.76 12.63 37.76 15.24V24H42.02V15.24C42.02 12.72 43.37 11.64 45.02 11.64C46.61 11.64 47.87 12.63 47.87 15.24V24H52.13V14.13C52.13 10.29 49.73 7.98 46.16 7.98ZM65.9577 10.71V10.62C64.7877 8.88 62.7477 7.98 60.7377 7.98C55.9077 7.98 52.9377 11.46 52.9377 16.11C52.9377 20.58 55.7577 24.3 60.5277 24.3C63.1377 24.3 65.2077 23.16 65.9577 21.3V24H70.2777V8.31H66.6777L65.9577 10.71ZM61.6377 20.49C59.0577 20.49 57.2577 18.69 57.2577 16.14C57.2577 13.62 59.0577 11.85 61.6377 11.85C64.1277 11.85 65.9577 13.65 65.9577 16.14C65.9577 18.66 64.1277 20.49 61.6377 20.49ZM82.6723 8.31C80.4823 11.07 79.5223 12.42 79.1323 13.44C78.7123 12.36 77.8123 11.04 75.6523 8.31H70.7923L76.7923 16.08L70.7923 24H75.6523C77.7223 21.18 78.6823 19.62 79.1023 18.42C79.5223 19.65 80.5423 21.18 82.6723 24H87.5623L81.5623 15.9L87.5623 8.31L82.6723 8.31ZM105.022 10.71V10.62C103.852 8.88 101.812 7.98 99.8021 7.98C94.9721 7.98 92.0021 11.46 92.0021 16.11C92.0021 20.58 94.8221 24.3 99.5921 24.3C102.202 24.3 104.272 23.16 105.022 21.3V22.38C105.022 26.07 103.222 27.69 99.8921 27.69C97.1921 27.69 95.1521 26.58 93.8621 25.86V29.52C95.3621 30.66 98.3321 31.38 100.762 31.38C106.372 31.38 109.282 27.84 109.282 22.38V8.31L105.802 8.31L105.022 10.71ZM100.702 20.49C98.1221 20.49 96.3221 18.69 96.3221 16.14C96.3221 13.62 98.1221 11.85 100.702 11.85C103.192 11.85 105.022 13.65 105.022 16.14C105.022 18.66 103.192 20.49 100.702 20.49ZM118.738 24.3C123.688 24.3 127.228 20.91 127.228 16.14C127.228 11.43 123.688 7.98 118.738 7.98C113.818 7.98 110.278 11.43 110.278 16.14C110.278 20.91 113.818 24.3 118.738 24.3ZM118.738 20.46C116.248 20.46 114.418 18.63 114.418 16.14C114.418 13.62 116.248 11.82 118.738 11.82C121.258 11.82 123.118 13.62 123.118 16.14C123.118 18.63 121.258 20.46 118.738 20.46ZM140.46 10.62C139.29 8.88 137.25 7.98 135.24 7.98C130.41 7.98 127.44 11.46 127.44 16.11C127.44 20.58 130.26 24.3 135.03 24.3C137.64 24.3 139.71 23.16 140.46 21.3V24H144.72V1.5L140.46 1.5V10.62ZM136.14 20.49C133.56 20.49 131.76 18.69 131.76 16.14C131.76 13.62 133.56 11.85 136.14 11.85C138.63 11.85 140.46 13.65 140.46 16.14C140.46 18.66 138.63 20.49 136.14 20.49ZM158.735 10.62C157.565 8.88 155.525 7.98 153.515 7.98C148.685 7.98 145.715 11.46 145.715 16.11C145.715 20.58 148.535 24.3 153.305 24.3C155.915 24.3 157.985 23.16 158.735 21.3V24H162.995V1.5L158.735 1.5V10.62ZM154.415 20.49C151.835 20.49 150.035 18.69 150.035 16.14C150.035 13.62 151.835 11.85 154.415 11.85C156.905 11.85 158.735 13.65 158.735 16.14C158.735 18.66 156.905 20.49 154.415 20.49ZM177.01 10.71V10.62C175.84 8.88 173.8 7.98 171.79 7.98C166.96 7.98 163.99 11.46 163.99 16.11C163.99 20.58 166.81 24.3 171.58 24.3C174.19 24.3 176.26 23.16 177.01 21.3V24H181.33V8.31H177.73L177.01 10.71ZM172.69 20.49C170.11 20.49 168.31 18.69 168.31 16.14C168.31 13.62 170.11 11.85 172.69 11.85C175.18 11.85 177.01 13.65 177.01 16.14C177.01 18.66 175.18 20.49 172.69 20.49ZM186.555 8.31L183.075 8.31V24H187.335V15.03C187.335 12.57 188.985 11.58 191.925 11.94L191.955 8.28C189.465 7.98 188.055 8.88 187.245 10.32L186.555 8.31ZM204.538 10.62C203.368 8.88 201.328 7.98 199.318 7.98C194.488 7.98 191.518 11.46 191.518 16.11C191.518 20.58 194.338 24.3 199.108 24.3C201.718 24.3 203.788 23.16 204.538 21.3V24H208.798V1.5L204.538 1.5V10.62ZM200.218 20.49C197.638 20.49 195.838 18.69 195.838 16.14C195.838 13.62 197.638 11.85 200.218 11.85C202.708 11.85 204.538 13.65 204.538 16.14C204.538 18.66 202.708 20.49 200.218 20.49Z" fill="#D5D0CA"/>
<defs>
<clipPath id="clip0_7_15">
<rect width="18" height="18" fill="white" transform="translate(0 6)"/>
</clipPath>
</defs>
</svg>
