<svg width="44" height="40" viewBox="0 0 44 40" fill="none" xmlns="http://www.w3.org/2000/svg">
<path d="M0.936028 39.7488H43.0566C43.4099 39.7488 43.6966 39.4621 43.6966 39.1088C43.6966 38.7554 43.4099 38.4688 43.0566 38.4688H37.2918C37.3257 38.3907 37.3461 38.305 37.3461 38.2146C37.3461 37.8625 37.0582 37.5746 36.7061 37.5746C36.3478 37.5746 36.0661 37.8625 36.0661 38.2146C36.0661 38.3048 36.0859 38.3907 36.1193 38.4688H18.0931C18.0996 38.4329 18.1148 38.3996 18.1148 38.3619C18.1148 38.0098 17.8269 37.7219 17.4748 37.7219C17.1227 37.7219 16.8348 38.0098 16.8348 38.3619C16.8348 38.3996 16.8502 38.4329 16.8565 38.4688H8.28899C8.17628 38.3644 8.02858 38.2979 7.8615 38.2979C7.69191 38.2979 7.54274 38.3644 7.42878 38.4688H1.57598L1.57578 0.891709C1.57578 0.538376 1.28911 0.251709 0.935776 0.251709C0.582443 0.251709 0.295776 0.538376 0.295776 0.891709V39.1088C0.295776 39.4621 0.582651 39.749 0.935776 39.749L0.936028 39.7488Z" fill="#D5D0CA"/>
<path d="M20.4806 15.5611C14.496 20.7855 5.45871 25.287 5.36804 25.3323C5.05116 25.4892 4.922 25.8731 5.07866 26.1898C5.19012 26.415 5.41658 26.5456 5.65285 26.5456C5.74827 26.5456 5.84494 26.5246 5.93639 26.4792C6.02848 26.4337 15.2111 21.8602 21.3225 16.525C26.0002 12.4413 29.8724 6.28556 31.5396 3.41942L31.6304 4.00444C31.6798 4.32069 31.9517 4.54652 32.2621 4.54652C32.2948 4.54652 32.3279 4.54402 32.3613 4.53881C32.7106 4.48443 32.9494 4.15735 32.8957 3.80798L32.5392 1.51113C32.5111 1.32946 32.4036 1.17446 32.2519 1.07592C32.218 1.04717 32.1898 1.01321 32.1488 0.991337C32.049 0.938836 31.9428 0.924878 31.8378 0.926755C31.7361 0.919047 31.6336 0.92863 31.5375 0.969672L29.3334 1.91949C29.0088 2.05969 28.8592 2.43594 28.9992 2.76055C29.1388 3.0843 29.5138 3.23472 29.8403 3.09472L30.3753 2.8643C28.7063 5.70745 24.9155 11.6894 20.4803 15.5608L20.4806 15.5611Z" fill="#D5D0CA"/>
<path d="M39.5515 16.8069C39.5515 15.2368 38.2746 13.9602 36.7048 13.9602C35.1348 13.9602 33.8581 15.2371 33.8581 16.8069C33.8581 17.5819 34.1711 18.2834 34.6754 18.7973L28.5901 27.0943C28.1536 26.821 27.6415 26.6566 27.0899 26.6566C25.7836 26.6566 24.6917 27.5462 24.3578 28.7475L20.2669 27.9385C20.0148 26.6252 18.8603 25.6281 17.4747 25.6281C15.9046 25.6281 14.628 26.9056 14.628 28.4748C14.628 28.6104 14.6497 28.7404 14.6684 28.871L10.0559 31.0989C9.53364 30.4596 8.74841 30.0416 7.86009 30.0416C6.29007 30.0416 5.01343 31.3185 5.01343 32.8883C5.01343 34.4525 6.28196 35.7248 7.84404 35.7337C7.8505 35.7337 7.85612 35.7375 7.86321 35.7375C7.87154 35.7375 7.87862 35.7329 7.88758 35.7323C9.44465 35.7175 10.7074 34.4485 10.7074 32.8881C10.7074 32.666 10.6759 32.4523 10.6274 32.2444L15.1221 30.0736C15.6349 30.8263 16.4982 31.3221 17.4755 31.3221C18.7817 31.3221 19.8736 30.4325 20.2076 29.2313L24.2984 30.0402C24.5492 31.3465 25.693 32.3371 27.069 32.3481C27.0761 32.3481 27.0817 32.3519 27.0894 32.3519C27.0953 32.3519 27.1003 32.3487 27.1061 32.3487C28.669 32.3404 29.9376 31.0681 29.9376 29.5039C29.9376 28.9554 29.7745 28.4479 29.5049 28.0127L35.7619 19.481C36.0582 19.586 36.3725 19.6537 36.7047 19.6545C36.7059 19.6545 36.7072 19.6551 36.7084 19.6551C36.7115 19.6551 36.7142 19.6532 36.7167 19.6532C38.28 19.6468 39.5511 18.3726 39.5511 16.8072L39.5515 16.8069Z" fill="#D5D0CA"/>
<path d="M7.22241 37.0177C7.22241 37.3698 7.50408 37.6577 7.86241 37.6577C8.2145 37.6577 8.49596 37.3698 8.49596 37.0177C8.49596 36.6593 8.21429 36.3777 7.86241 36.3777C7.50387 36.3777 7.22241 36.6593 7.22241 37.0177Z" fill="#D5D0CA"/>
<path d="M18.1152 34.5216C18.1152 34.8749 17.8287 35.1616 17.4752 35.1616C17.1217 35.1616 16.8352 34.8749 16.8352 34.5216C16.8352 34.1681 17.1217 33.8816 17.4752 33.8816C17.8287 33.8816 18.1152 34.1681 18.1152 34.5216Z" fill="#D5D0CA"/>
<path d="M18.1152 36.4415C18.1152 36.7948 17.8287 37.0815 17.4752 37.0815C17.1217 37.0815 16.8352 36.7948 16.8352 36.4415C16.8352 36.088 17.1217 35.8015 17.4752 35.8015C17.8287 35.8015 18.1152 36.088 18.1152 36.4415Z" fill="#D5D0CA"/>
<path d="M18.1152 32.6017C18.1152 32.955 17.8287 33.2417 17.4752 33.2417C17.1217 33.2417 16.8352 32.955 16.8352 32.6017C16.8352 32.2481 17.1217 31.9617 17.4752 31.9617C17.8287 31.9617 18.1152 32.2481 18.1152 32.6017Z" fill="#D5D0CA"/>
<path d="M27.088 36.832C26.7359 36.832 26.448 37.1199 26.448 37.472C26.448 37.8241 26.7359 38.112 27.088 38.112C27.4463 38.112 27.728 37.8241 27.728 37.472C27.728 37.1199 27.4465 36.832 27.088 36.832Z" fill="#D5D0CA"/>
<path d="M27.088 34.9119C26.7359 34.9119 26.448 35.1935 26.448 35.5519C26.448 35.904 26.7359 36.1919 27.088 36.1919C27.4463 36.1919 27.728 35.904 27.728 35.5519C27.728 35.1933 27.4465 34.9119 27.088 34.9119Z" fill="#D5D0CA"/>
<path d="M27.088 32.9919C26.7359 32.9919 26.448 33.2736 26.448 33.6319C26.448 33.984 26.7359 34.2719 27.088 34.2719C27.4463 34.2719 27.728 33.984 27.728 33.6319C27.728 33.2734 27.4465 32.9919 27.088 32.9919Z" fill="#D5D0CA"/>
<path d="M36.7073 20.2944C36.3489 20.2944 36.0673 20.5823 36.0673 20.9344C36.0673 21.2865 36.3489 21.5744 36.7073 21.5744C37.0593 21.5744 37.3473 21.2865 37.3473 20.9344C37.3473 20.5826 37.0591 20.2944 36.7073 20.2944Z" fill="#D5D0CA"/>
<path d="M36.7073 27.9744C36.3489 27.9744 36.0673 28.2623 36.0673 28.6144C36.0673 28.9665 36.3489 29.2544 36.7073 29.2544C37.0593 29.2544 37.3473 28.9665 37.3473 28.6144C37.3473 28.2625 37.0591 27.9744 36.7073 27.9744Z" fill="#D5D0CA"/>
<path d="M36.7073 26.0544C36.3489 26.0544 36.0673 26.3424 36.0673 26.6944C36.0673 27.0465 36.3489 27.3344 36.7073 27.3344C37.0593 27.3344 37.3473 27.0465 37.3473 26.6944C37.3473 26.3426 37.0591 26.0544 36.7073 26.0544Z" fill="#D5D0CA"/>
<path d="M36.7073 33.7344C36.3489 33.7344 36.0673 34.0223 36.0673 34.3744C36.0673 34.7265 36.3489 35.0144 36.7073 35.0144C37.0593 35.0144 37.3473 34.7265 37.3473 34.3744C37.3473 34.0225 37.0591 33.7344 36.7073 33.7344Z" fill="#D5D0CA"/>
<path d="M36.7073 24.1343C36.3489 24.1343 36.0673 24.4222 36.0673 24.7743C36.0673 25.1264 36.3489 25.4143 36.7073 25.4143C37.0593 25.4143 37.3473 25.1264 37.3473 24.7743C37.3473 24.4224 37.0591 24.1343 36.7073 24.1343Z" fill="#D5D0CA"/>
<path d="M36.7073 22.2144C36.3489 22.2144 36.0673 22.5023 36.0673 22.8544C36.0673 23.2064 36.3489 23.4944 36.7073 23.4944C37.0593 23.4944 37.3473 23.2064 37.3473 22.8544C37.3473 22.5025 37.0591 22.2144 36.7073 22.2144Z" fill="#D5D0CA"/>
<path d="M36.7073 35.6543C36.3489 35.6543 36.0673 35.9422 36.0673 36.2943C36.0673 36.6464 36.3489 36.9343 36.7073 36.9343C37.0593 36.9343 37.3473 36.6464 37.3473 36.2943C37.3473 35.9424 37.0591 35.6543 36.7073 35.6543Z" fill="#D5D0CA"/>
<path d="M36.7073 29.8943C36.3489 29.8943 36.0673 30.1822 36.0673 30.5343C36.0673 30.8864 36.3489 31.1743 36.7073 31.1743C37.0593 31.1743 37.3473 30.8864 37.3473 30.5343C37.3473 30.1824 37.0591 29.8943 36.7073 29.8943Z" fill="#D5D0CA"/>
<path d="M36.7073 31.8145C36.3489 31.8145 36.0673 32.1024 36.0673 32.4545C36.0673 32.8065 36.3489 33.0945 36.7073 33.0945C37.0593 33.0945 37.3473 32.8065 37.3473 32.4545C37.3473 32.1026 37.0591 31.8145 36.7073 31.8145Z" fill="#D5D0CA"/>
</svg>
